# xmcd
#
# Track frame offsets:
#	225
#	11423
#	26092
#	39967
#	55505
#	67870
#	86563
#	98769
#	111269
#	127898
#	140577
#	153095
#
# Disc length: 2310 seconds
#
# Revision: 1
# Processed by: cddbd v1.5.2PL0 Copyright (c) Steve Scherf et al.
# Submitted via: audiograbber 1.83.01
#
DISCID=8909030c
DTITLE=Johnny Dickinson - Straight From The Honky Tonk
DYEAR=2008
DGENRE=Country
TTITLE0=There Stands The Glass
TTITLE1=Its Such A Pretty World
TTITLE2=Dont You Ever Get Tired of Hurting Me
TTITLE3=San Antonio Rose
TTITLE4=Heart Over Mind
TTITLE5=Old Violin
TTITLE6=Playboy
TTITLE7=Corina corina
TTITLE8=Amarillo By Morning
TTITLE9=A-11
TTITLE10=Swinging Doors
TTITLE11=Ramblin Fever
EXTD=
EXTT0=
EXTT1=
EXTT2=
EXTT3=
EXTT4=
EXTT5=
EXTT6=
EXTT7=
EXTT8=
EXTT9=
EXTT10=
EXTT11=
PLAYORDER=
